<svg width="120" height="120" viewBox="0 0 120 120" fill="none" xmlns="http://www.w3.org/2000/svg">
    <path d="M60 120C93.1371 120 120 93.1371 120 60C120 26.8629 93.1371 0 60 0C26.8629 0 0 26.8629 0 60C0 93.1371 26.8629 120 60 120Z" fill="#7D4AEA"/>
    <path d="M47.4458 57.7957C47.4311 58.3708 47.5021 58.9449 47.6566 59.499C47.8267 59.9726 48.0314 60.433 48.2691 60.8765C48.3543 61.0077 48.4008 61.1602 48.4033 61.3165C48.3916 61.4339 48.3527 61.547 48.2896 61.6467C48.2266 61.7463 48.1411 61.8299 48.04 61.8907L46.8341 62.694C46.6881 62.7994 46.5141 62.8594 46.3341 62.8665C46.1162 62.8517 45.9116 62.7563 45.76 62.599C45.502 62.3221 45.2712 62.021 45.0708 61.6999C44.8791 61.3749 44.6883 61.0107 44.4775 60.5707C43.8029 61.4104 42.9454 62.0848 41.9703 62.5425C40.9953 63.0002 39.9286 63.229 38.8516 63.2115C38.1541 63.2485 37.4561 63.1457 36.7988 62.9092C36.1416 62.6726 35.5382 62.3071 35.0241 61.834C34.0591 60.78 33.5514 59.3863 33.6123 57.9585C33.6733 56.5308 34.2978 55.1854 35.3491 54.2174C36.6782 53.1658 38.3451 52.6351 40.0375 52.7249C40.7163 52.7305 41.3939 52.7817 42.0658 52.8782C42.7741 52.974 43.5008 53.1282 44.2666 53.299V51.9024C44.377 50.8037 44.0544 49.7052 43.3675 48.8407C42.4774 48.1617 41.3621 47.847 40.2483 47.9607C39.5519 47.9611 38.8581 48.045 38.1816 48.2107C37.4782 48.3784 36.7876 48.5959 36.115 48.8615C35.8984 48.9592 35.6757 49.0427 35.4483 49.1115C35.3491 49.1443 35.246 49.1636 35.1416 49.169C34.8741 49.169 34.74 48.9774 34.74 48.5757V47.629C34.7201 47.3986 34.7667 47.1672 34.8741 46.9624C35.0185 46.788 35.2021 46.6504 35.41 46.5607C36.1774 46.1811 36.9865 45.8922 37.8208 45.6999C38.7961 45.4498 39.7998 45.3276 40.8066 45.3365C43.0841 45.3365 44.7483 45.8532 45.82 46.8865C46.8725 47.9199 47.4083 49.489 47.4083 51.594V57.794L47.4458 57.7957ZM39.6766 60.7049C40.3479 60.6976 41.0135 60.5813 41.6475 60.3607C42.35 60.1178 42.9768 59.6955 43.4658 59.1357C43.7743 58.783 43.9971 58.3638 44.1166 57.9107C44.2484 57.3651 44.3127 56.8053 44.3083 56.244V55.4399C43.7279 55.2987 43.14 55.1902 42.5475 55.1149C41.9507 55.0391 41.3498 55.0006 40.7483 54.9999C39.7383 54.9202 38.7316 55.1907 37.8975 55.7657C37.4199 56.1143 37.0682 56.6083 36.895 57.1736C36.7219 57.739 36.7367 58.3453 36.9372 58.9015C37.1378 59.4577 37.5132 59.934 38.0072 60.2588C38.5013 60.5836 39.0873 60.7396 39.6775 60.7032L39.6766 60.7049ZM55.0433 62.7715C54.7856 62.798 54.5271 62.7299 54.3158 62.5799C54.115 62.3719 53.976 62.1123 53.9141 61.8299L49.4141 47.0374C49.3268 46.7897 49.269 46.5327 49.2416 46.2715C49.2317 46.2081 49.2366 46.1433 49.2559 46.0821C49.2751 46.0209 49.3083 45.9649 49.3527 45.9186C49.3972 45.8723 49.4517 45.8369 49.5121 45.8152C49.5725 45.7934 49.6371 45.7859 49.7008 45.7932H51.5791C51.8444 45.7603 52.1122 45.8288 52.3291 45.9849C52.5227 46.1953 52.655 46.4547 52.7116 46.7349L55.9266 59.4015L58.9116 46.7349C58.9501 46.4527 59.0774 46.19 59.275 45.9849C59.5046 45.8442 59.7719 45.7773 60.0408 45.7932H61.5716C61.8415 45.7649 62.1128 45.8328 62.3375 45.9849C62.5383 46.1878 62.6661 46.4516 62.7008 46.7349L65.7241 59.5565L69.035 46.7349C69.0951 46.4559 69.2269 46.1974 69.4175 45.9849C69.6409 45.8432 69.9035 45.7761 70.1675 45.7932H71.9475C72.0124 45.7844 72.0784 45.7907 72.1405 45.8116C72.2025 45.8325 72.2589 45.8675 72.3052 45.9138C72.3515 45.9601 72.3865 46.0165 72.4074 46.0786C72.4283 46.1406 72.4346 46.2067 72.4258 46.2715C72.4213 46.3744 72.4085 46.4766 72.3875 46.5774C72.3574 46.7406 72.3125 46.9007 72.2533 47.0557L67.6416 61.8482C67.5847 62.1324 67.445 62.3934 67.24 62.5982C67.0236 62.7369 66.7691 62.8039 66.5125 62.7899H64.8625C64.5926 62.8182 64.3214 62.7503 64.0966 62.5982C63.8968 62.3883 63.7695 62.1199 63.7333 61.8324L60.7675 49.489L57.82 61.8132C57.7754 62.0982 57.6492 62.3642 57.4566 62.579C57.2307 62.7285 56.9605 62.7962 56.6908 62.7707L55.0433 62.7715ZM79.6341 63.2882C78.6415 63.2894 77.6523 63.1739 76.6866 62.944C75.922 62.7886 75.1818 62.531 74.4858 62.1782C74.2395 62.0621 74.033 61.8757 73.8925 61.6424C73.8179 61.4735 73.7788 61.2911 73.7775 61.1065V60.129C73.7775 59.7274 73.9308 59.5357 74.2175 59.5357C74.3345 59.5362 74.4508 59.5556 74.5616 59.5932C74.6766 59.6315 74.8483 59.7082 75.04 59.7849C75.716 60.0811 76.4217 60.3046 77.145 60.4515C77.8946 60.6038 78.6575 60.6809 79.4225 60.6815C80.3948 60.7386 81.3634 60.5196 82.2166 60.0499C82.5283 59.8617 82.7846 59.5943 82.9594 59.2749C83.1342 58.9555 83.2212 58.5955 83.2116 58.2315C83.2184 57.9853 83.1762 57.7401 83.0875 57.5102C82.9988 57.2803 82.8654 57.0703 82.695 56.8924C82.1353 56.4174 81.4742 56.077 80.7625 55.8974L77.9875 55.0365C76.7853 54.7283 75.7128 54.0446 74.9258 53.0849C74.3097 52.2906 73.9734 51.315 73.9691 50.3099C73.9536 49.5689 74.1317 48.8368 74.4858 48.1857C74.8273 47.5701 75.2971 47.0349 75.8633 46.6165C76.4597 46.1652 77.1344 45.8279 77.8533 45.6215C78.637 45.3959 79.4495 45.2864 80.265 45.2965C80.6937 45.2935 81.1222 45.3191 81.5475 45.3732C81.9875 45.4307 82.3891 45.5074 82.7916 45.584C83.1741 45.6799 83.5416 45.7757 83.8825 45.8899C84.1618 45.9762 84.4314 46.0915 84.6866 46.234C84.912 46.3476 85.1084 46.5112 85.2608 46.7124C85.3854 46.8986 85.4459 47.1203 85.4333 47.344V48.2432C85.4333 48.6449 85.28 48.8557 84.9933 48.8557C84.7383 48.8267 84.4912 48.7486 84.2658 48.6257C83.1096 48.1133 81.8562 47.8574 80.5916 47.8757C79.7107 47.8238 78.8319 48.0088 78.0466 48.4115C77.7546 48.5853 77.5162 48.8363 77.3575 49.1368C77.1989 49.4373 77.1262 49.7757 77.1475 50.1149C77.1423 50.3689 77.1907 50.6212 77.2897 50.8553C77.3886 51.0894 77.5358 51.2999 77.7216 51.4732C78.3427 51.9663 79.0596 52.3247 79.8266 52.5257L82.5441 53.3865C83.6969 53.6803 84.7319 54.3201 85.51 55.2199C86.0938 55.9898 86.4036 56.9329 86.39 57.899C86.3992 58.668 86.228 59.4283 85.89 60.119C85.5505 60.7741 85.0742 61.3484 84.4933 61.8032C83.8615 62.2949 83.1401 62.6589 82.3691 62.8749C81.4834 63.1499 80.5608 63.2879 79.6333 63.284L79.6341 63.2882Z" fill="white"/>
    <path d="M83.2504 72.5868C76.9546 77.2368 67.8071 79.706 59.9413 79.706C49.4352 79.7598 39.2875 75.8897 31.4854 68.8535C30.8921 68.3177 31.4279 67.5902 32.1363 68.0118C39.6946 72.3712 48.1596 74.9213 56.8681 75.4624C65.5767 76.0036 74.2922 74.5211 82.3321 71.131C83.3846 70.6527 84.2838 71.8202 83.2504 72.5868ZM85.8721 69.6018C85.0679 68.5685 80.5521 69.1018 78.5046 69.3518C77.8921 69.4285 77.7963 68.8927 78.3513 68.491C81.9488 65.9652 87.8621 66.6918 88.5513 67.5343C89.2404 68.3952 88.3596 74.3085 84.9921 77.141C84.4754 77.581 83.9779 77.3518 84.2071 76.7777C84.9729 74.8818 86.6763 70.6143 85.8721 69.6002V69.6018Z" fill="white"/>
</svg>
