<svg width="48" height="48" viewBox="0 0 48 48" fill="none" xmlns="http://www.w3.org/2000/svg">
    <path d="M23.9999 12V18L31.9999 10L23.9999 2V8C21.1382 7.995 18.3276 8.75897 15.8622 10.212C13.3968 11.6651 11.3671 13.7538 9.98528 16.2599C8.60348 18.7659 7.92037 21.5972 8.00739 24.4576C8.0944 27.3181 8.94835 30.1026 10.4799 32.52L13.3999 29.6C12.4745 27.8789 11.9933 25.9541 11.9999 24C12.0024 20.8182 13.2675 17.7674 15.5174 15.5174C17.7673 13.2675 20.8181 12.0025 23.9999 12ZM37.5199 15.48L34.5999 18.4C35.5704 20.227 36.0513 22.2742 35.9956 24.3422C35.94 26.4103 35.3498 28.4286 34.2824 30.2008C33.2151 31.973 31.707 33.4386 29.9051 34.4549C28.1031 35.4711 26.0687 36.0035 23.9999 36V30L15.9999 38L23.9999 46V40C26.8617 40.005 29.6722 39.241 32.1376 37.788C34.603 36.3349 36.6328 34.2462 38.0146 31.7401C39.3964 29.2341 40.0795 26.4028 39.9925 23.5424C39.9054 20.6819 39.0515 17.8974 37.5199 15.48Z" fill="#7D4AEA"/>
</svg>
