<svg width="120" height="120" viewBox="0 0 120 120" fill="none" xmlns="http://www.w3.org/2000/svg">
    <path d="M60 120C93.1371 120 120 93.1371 120 60C120 26.8629 93.1371 0 60 0C26.8629 0 0 26.8629 0 60C0 93.1371 26.8629 120 60 120Z" fill="#7D4AEA"/>
    <path d="M83.75 82.5C85.8211 82.5 87.5 80.8211 87.5 78.75C87.5 76.6789 85.8211 75 83.75 75C81.6789 75 80 76.6789 80 78.75C80 80.8211 81.6789 82.5 83.75 82.5Z" fill="white"/>
    <path d="M76.667 44.8L56.667 35V80H51.667V75.675C47.192 76.55 44.167 78.15 44.167 80C44.167 82.75 50.892 85 59.167 85C67.442 85 74.167 82.75 74.167 80C74.167 77.525 68.767 75.475 61.667 75.075V52.45L76.667 44.8Z" fill="white"/>
</svg>
