<svg width="120" height="120" viewBox="0 0 120 120" fill="none" xmlns="http://www.w3.org/2000/svg">
    <path d="M60 120C93.1371 120 120 93.1371 120 60C120 26.8629 93.1371 0 60 0C26.8629 0 0 26.8629 0 60C0 93.1371 26.8629 120 60 120Z" fill="#7D4AEA"/>
    <path d="M57.5 65.4254L52.075 60.0004L57.5 54.5754L53.975 51.0254L45 60.0004L53.975 68.9754L57.5 65.4254Z" fill="white"/>
    <path d="M66.025 68.9754L75 60.0004L66.025 51.0254L62.5 54.5754L67.925 60.0004L62.5 65.4254L66.025 68.9754Z" fill="white"/>
    <path d="M77.5 37.5H67.05C66.5381 36.0386 65.5847 34.7724 64.3217 33.8766C63.0587 32.9807 61.5485 32.4995 60 32.4995C58.4515 32.4995 56.9413 32.9807 55.6783 33.8766C54.4153 34.7724 53.4619 36.0386 52.95 37.5H42.5C42.1639 37.4949 41.8284 37.5284 41.5 37.6C40.7048 37.7696 39.9623 38.1286 39.3356 38.6465C38.7088 39.1645 38.2164 39.826 37.9 40.575C37.6357 41.1823 37.4995 41.8377 37.5 42.5V77.5C37.5047 78.1699 37.6406 78.8324 37.9 79.45C38.1575 80.0446 38.5218 80.5869 38.975 81.05C39.6646 81.7448 40.5423 82.2227 41.5 82.425C41.8309 82.4758 42.1652 82.5009 42.5 82.5H77.5C78.8249 82.4961 80.0943 81.968 81.0312 81.0312C81.968 80.0944 82.496 78.8249 82.5 77.5V42.5C82.496 41.1752 81.968 39.9057 81.0312 38.9689C80.0943 38.032 78.8249 37.504 77.5 37.5ZM60 36.875C60.3708 36.875 60.7334 36.985 61.0417 37.191C61.35 37.397 61.5904 37.6899 61.7323 38.0325C61.8742 38.3751 61.9113 38.7521 61.839 39.1158C61.7666 39.4795 61.588 39.8136 61.3258 40.0758C61.0636 40.3381 60.7295 40.5166 60.3658 40.589C60.0021 40.6613 59.6251 40.6242 59.2825 40.4823C58.9399 40.3404 58.647 40.1001 58.441 39.7917C58.235 39.4834 58.125 39.1209 58.125 38.75C58.1285 38.2538 58.3272 37.7789 58.678 37.4281C59.0289 37.0772 59.5038 36.8785 60 36.875ZM77.5 67.5V77.5H42.5V42.5H77.5V67.5Z" fill="white"/>
</svg>
