<svg width="120" height="120" viewBox="0 0 120 120" fill="none" xmlns="http://www.w3.org/2000/svg">
    <path d="M60 120C93.1371 120 120 93.1371 120 60C120 26.8629 93.1371 0 60 0C26.8629 0 0 26.8629 0 60C0 93.1371 26.8629 120 60 120Z" fill="#7D4AEA"/>
    <path d="M77.9246 59.9999L66.4746 48.5249L69.9996 44.9999L84.9996 59.9999L76.0246 68.9749L72.4996 65.4249L77.9246 59.9999ZM33.4746 40.5499L43.9496 51.0249L34.9996 59.9999L49.9996 74.9999L53.5246 71.4749L42.0746 59.9999L47.4996 54.5749L79.4496 86.5249L82.9746 82.9999L37.0246 37.0249L33.4746 40.5499Z" fill="white"/>
</svg>

