<svg width="36" height="36" viewBox="0 0 36 36" fill="none" xmlns="http://www.w3.org/2000/svg">
    <circle cx="18" cy="18" r="18" fill="#EAEAEA"/>
    <path d="M22.0396 14.272H16.8556V17.008C17.0796 16.7307 17.3996 16.5067 17.8156 16.336C18.2316 16.1547 18.6742 16.064 19.1436 16.064C19.9969 16.064 20.6956 16.2507 21.2396 16.624C21.7836 16.9973 22.1782 17.4773 22.4236 18.064C22.6689 18.64 22.7916 19.2587 22.7916 19.92C22.7916 21.1467 22.4396 22.1333 21.7356 22.88C21.0422 23.6267 20.0502 24 18.7596 24C17.5436 24 16.5729 23.696 15.8476 23.088C15.1222 22.48 14.7116 21.6853 14.6156 20.704H16.7916C16.8876 21.1307 17.1009 21.472 17.4316 21.728C17.7729 21.984 18.2049 22.112 18.7276 22.112C19.3569 22.112 19.8316 21.9147 20.1516 21.52C20.4716 21.1253 20.6316 20.6027 20.6316 19.952C20.6316 19.2907 20.4662 18.7893 20.1356 18.448C19.8156 18.096 19.3409 17.92 18.7116 17.92C18.2636 17.92 17.8902 18.032 17.5916 18.256C17.2929 18.48 17.0796 18.7787 16.9516 19.152H14.8076V12.304H22.0396V14.272Z" fill="black"/>
</svg>
