<svg width="36" height="36" viewBox="0 0 36 36" fill="none" xmlns="http://www.w3.org/2000/svg">
    <circle cx="18" cy="18" r="18" fill="#EAEAEA"/>
    <path d="M14.9583 21.472C15.9823 20.6187 16.7983 19.9093 17.4062 19.344C18.0143 18.768 18.5209 18.1707 18.9263 17.552C19.3316 16.9333 19.5343 16.3253 19.5343 15.728C19.5343 15.184 19.4063 14.7573 19.1503 14.448C18.8943 14.1387 18.4996 13.984 17.9663 13.984C17.4329 13.984 17.0223 14.1653 16.7343 14.528C16.4463 14.88 16.2969 15.3653 16.2863 15.984H14.1103C14.1529 14.704 14.5316 13.7333 15.2463 13.072C15.9716 12.4107 16.8889 12.08 17.9983 12.08C19.2143 12.08 20.1476 12.4053 20.7983 13.056C21.4489 13.696 21.7743 14.544 21.7743 15.6C21.7743 16.432 21.5503 17.2267 21.1023 17.984C20.6543 18.7413 20.1423 19.4027 19.5663 19.968C18.9903 20.5227 18.2383 21.1947 17.3103 21.984H22.0303V23.84H14.1263V22.176L14.9583 21.472Z" fill="black"/>
</svg>
