<svg width="36" height="36" viewBox="0 0 36 36" fill="none" xmlns="http://www.w3.org/2000/svg">
    <circle cx="18" cy="18" r="18" fill="#EAEAEA"/>
    <path d="M14.0909 15.408C14.1443 14.3413 14.5176 13.52 15.2109 12.944C15.9149 12.3573 16.8376 12.064 17.9789 12.064C18.7576 12.064 19.4243 12.2027 19.9789 12.48C20.5336 12.7467 20.9496 13.1147 21.2269 13.584C21.5149 14.0427 21.6589 14.5653 21.6589 15.152C21.6589 15.824 21.4829 16.3947 21.1309 16.864C20.7896 17.3227 20.3789 17.632 19.8989 17.792V17.856C20.5176 18.048 20.9976 18.3893 21.3389 18.88C21.6909 19.3707 21.8669 20 21.8669 20.768C21.8669 21.408 21.7176 21.9787 21.4189 22.48C21.1309 22.9813 20.6989 23.376 20.1229 23.664C19.5576 23.9413 18.8749 24.08 18.0749 24.08C16.8696 24.08 15.8883 23.776 15.1309 23.168C14.3736 22.56 13.9736 21.664 13.9309 20.48H16.1069C16.1283 21.0027 16.3043 21.424 16.6349 21.744C16.9763 22.0533 17.4403 22.208 18.0269 22.208C18.5709 22.208 18.9869 22.0587 19.2749 21.76C19.5736 21.4507 19.7229 21.056 19.7229 20.576C19.7229 19.936 19.5203 19.4773 19.1149 19.2C18.7096 18.9227 18.0803 18.784 17.2269 18.784H16.7629V16.944H17.2269C18.7416 16.944 19.4989 16.4373 19.4989 15.424C19.4989 14.9653 19.3603 14.608 19.0829 14.352C18.8163 14.096 18.4269 13.968 17.9149 13.968C17.4136 13.968 17.0243 14.1067 16.7469 14.384C16.4803 14.6507 16.3256 14.992 16.2829 15.408H14.0909Z" fill="black"/>
</svg>
